<svg width="19" height="18" viewBox="0 0 19 18" fill="none" xmlns="http://www.w3.org/2000/svg">
<path d="M6.33934 17.1074V11.6691L7.39356 11.6691L12.0651 14.5882C12.2618 14.7308 12.487 14.8091 12.7178 14.8151C12.9486 14.8211 13.1765 14.7546 13.3783 14.6224C13.5802 14.5236 13.7521 14.3552 13.8716 14.1393C13.9912 13.9234 14.0528 13.6699 14.0486 13.412L14.0486 1.40199C14.0525 1.14443 13.9907 0.891447 13.8711 0.675949C13.7516 0.460451 13.5799 0.292418 13.3783 0.193714C13.1766 0.0614147 12.9488 -0.00532341 12.7181 0.000312805C12.4873 0.00594902 12.262 0.0837555 12.0651 0.225792L7.39356 3.1449H2.27281C1.67735 3.12574 1.09858 3.37853 0.657057 3.85062C0.450785 4.05682 0.285091 4.31366 0.17153 4.60323C0.0579681 4.8928 -0.000730515 5.20813 -0.000471115 5.52723V9.28678C-0.00109482 9.60606 0.0572472 9.92165 0.170494 10.2116C0.283741 10.5015 0.449165 10.7588 0.655247 10.9655C1.09715 11.4367 1.67581 11.6886 2.27099 11.6691H3.96825V17.1074H6.33934ZM18.1133 7.40915C18.0898 6.55906 17.8522 5.73654 17.4308 5.04667C17.0095 4.35681 16.4234 3.83094 15.7476 3.53625L15.7476 11.2799C16.4231 10.9854 17.009 10.4598 17.4303 9.77036C17.8517 9.08092 18.0895 8.25886 18.1133 7.40915Z" fill="#7F5D38"/>
</svg>
