<svg xmlns="http://www.w3.org/2000/svg" width="24" height="24" viewBox="0 0 24 24" fill="none">
<path d="M17.5392 5.53763C17.7945 5.28231 18.2095 5.28245 18.4649 5.53763C18.7204 5.79307 18.7203 6.20797 18.4649 6.46342L12.9278 12.0005L18.4649 17.5377C18.7204 17.7931 18.7203 18.208 18.4649 18.4635C18.2095 18.7189 17.7946 18.7189 17.5392 18.4635L12.002 12.9263L6.4649 18.4635C6.20946 18.7189 5.79456 18.7189 5.53912 18.4635C5.28392 18.208 5.28375 17.793 5.53912 17.5377L11.0762 12.0005L5.53912 6.46342C5.28392 6.20795 5.28375 5.793 5.53912 5.53763C5.79449 5.28231 6.20945 5.28245 6.4649 5.53763L12.002 11.0748L17.5392 5.53763Z" fill="currentColor"/>
</svg>