<svg width="30" height="30" viewBox="0 0 30 30" fill="none" xmlns="http://www.w3.org/2000/svg">
<path d="M15 27.5C21.9036 27.5 27.5 21.9036 27.5 15C27.5 8.09644 21.9036 2.5 15 2.5C8.09644 2.5 2.5 8.09644 2.5 15C2.5 21.9036 8.09644 27.5 15 27.5Z" fill="black" fill-opacity="0.5"/>
<path d="M19.1984 17.8725L16.3258 14.9999L19.1984 12.1273C19.5608 11.7649 19.5608 11.1639 19.1984 10.8015C18.8361 10.4391 18.235 10.4391 17.8726 10.8015L15 13.6741L12.1274 10.8015C11.765 10.4391 11.1639 10.4391 10.8016 10.8015C10.4392 11.1639 10.4392 11.7649 10.8016 12.1273L13.6742 14.9999L10.8016 17.8725C10.4392 18.2349 10.4392 18.836 10.8016 19.1984C11.1639 19.5608 11.765 19.5608 12.1274 19.1984L15 16.3257L17.8726 19.1984C18.235 19.5608 18.8361 19.5608 19.1984 19.1984C19.5608 18.836 19.5608 18.2349 19.1984 17.8725Z" fill="white"/>
</svg>
