<svg xmlns="http://www.w3.org/2000/svg" width="24" height="24" viewBox="0 0 24 24" fill="none">
  <path d="M12.4568 8.58789C14.3197 8.58798 15.8299 10.0958 15.8299 11.956C15.8299 13.2178 15.1346 14.3168 14.1061 14.8938C16.3696 15.5874 18.0243 17.6714 18.0732 20.1488C18.0744 20.2107 18.0244 20.2616 17.9624 20.2617H6.95121C6.88919 20.2617 6.83864 20.2108 6.83987 20.1488C6.88875 17.6717 8.54341 15.5877 10.8064 14.8938C9.77828 14.3167 9.08368 13.2176 9.08368 11.956C9.0837 10.0958 10.5938 8.58789 12.4568 8.58789Z" fill="currentColor"/>
  <path fill-rule="evenodd" clip-rule="evenodd" d="M6.61721 5C8.44137 5.00021 9.92549 6.4462 9.98635 8.25293C8.77997 9.05205 7.99027 10.4186 7.99026 11.957C7.99037 12.9485 8.31916 13.8648 8.87307 14.6055C8.03575 15.1336 7.3274 15.8426 6.79592 16.6738H1.11135C1.04935 16.6738 0.998801 16.6225 1.00002 16.5605C1.04906 14.0836 2.7039 11.9995 4.96682 11.3057C3.93867 10.7286 3.24418 9.62972 3.24416 8.36816C3.24418 6.50794 4.75423 5 6.61721 5ZM9.10061 11.6367C10.9257 12.5371 12.1906 14.3992 12.2334 16.5605C12.2346 16.6225 12.184 16.6737 12.1221 16.6738H8.13869C8.82849 15.8456 9.75226 15.2185 10.8086 14.8945C9.84463 14.3535 9.17376 13.3529 9.09377 12.1904L9.08596 11.957C9.08596 11.8491 9.09067 11.742 9.10061 11.6367Z" fill="currentColor"/>
  <path fill-rule="evenodd" clip-rule="evenodd" d="M15.7735 11.3516C15.8092 11.548 15.8291 11.7503 15.8291 11.957L15.8213 12.1904C15.7412 13.3531 15.0698 14.3536 14.1055 14.8945C15.1622 15.2184 16.0864 15.8454 16.7764 16.6738H12.0606C11.9986 16.6738 11.948 16.6225 11.9492 16.5605C11.9972 14.1358 13.5838 12.0878 15.7735 11.3516ZM17.5664 5C19.4292 5.0002 20.9395 6.50806 20.9395 8.36816C20.9394 9.62979 20.2441 10.7286 19.2158 11.3057C21.4791 11.9994 23.1336 14.0833 23.1826 16.5605C23.1839 16.6223 23.134 16.6735 23.0723 16.6738H18.1201C17.5886 15.842 16.8789 15.1338 16.041 14.6055C16.5951 13.8649 16.9247 12.9488 16.9248 11.957C16.9248 10.138 15.8208 8.55983 14.2295 7.875C14.4685 6.24855 15.8712 5 17.5664 5ZM14.2803 9.12598C15.0075 9.59427 15.5427 10.3323 15.7422 11.2002C15.0149 10.7323 14.4802 9.99347 14.2803 9.12598Z" fill="currentColor"/>
</svg>
