<svg width="119" height="32" viewBox="0 0 119 32" fill="none" xmlns="http://www.w3.org/2000/svg">
<g clip-path="url(#clip0_741_29207)">
<path d="M20.6171 27.0168C20.6171 27.6807 20.4927 28.1207 20.2439 28.3384C19.9951 28.5561 19.5707 28.696 18.969 28.7582C18.4714 28.8204 17.8961 28.8872 17.2431 28.9603C16.5901 29.0334 15.9215 29.1049 15.2374 29.178C14.5532 29.2511 13.8644 29.3133 13.1694 29.3646C12.4744 29.4159 11.8276 29.4423 11.2259 29.4423C9.04912 29.4423 7.24085 29.1671 5.79952 28.6182C4.35819 28.0694 3.20762 27.2033 2.3478 26.0217C1.48797 24.84 0.88159 23.3318 0.528643 21.4971C0.175696 19.6624 0 17.4499 0 14.858C0 12.2661 0.181915 10.0022 0.544191 8.18775C0.906467 6.37326 1.50352 4.90239 2.33225 3.77203C3.16097 2.64167 4.24469 1.82383 5.58185 1.3154C6.919 0.806965 8.56246 0.553528 10.5107 0.553528C11.1528 0.553528 11.868 0.595508 12.6563 0.677914C13.4446 0.760321 14.222 0.85983 14.9886 0.973333C15.7551 1.08684 16.4703 1.20656 17.1343 1.33094C17.7982 1.45533 18.3159 1.5595 18.6891 1.64191C18.9379 1.7041 19.1353 1.79273 19.2799 1.90623C19.4245 2.01973 19.4867 2.32604 19.4665 2.82358L19.3421 5.28022C19.3219 5.69536 19.2177 5.97523 19.0311 6.11983C18.8446 6.26443 18.6067 6.31729 18.3159 6.27531C17.9226 6.23333 17.4095 6.18202 16.7766 6.11983C16.1438 6.05763 15.4908 5.99544 14.8176 5.93325C14.1443 5.87105 13.4913 5.81974 12.8585 5.77776C12.2256 5.73578 11.7126 5.71557 11.3192 5.71557C10.2619 5.71557 9.37564 5.85084 8.66042 6.11983C7.94519 6.38881 7.3699 6.86615 6.93455 7.55027C6.4992 8.2344 6.1929 9.1673 6.0172 10.349C5.8415 11.5306 5.75288 13.0342 5.75288 14.858C5.75288 16.6818 5.83062 18.0563 5.9861 19.2271C6.14159 20.3979 6.43701 21.337 6.87236 22.0413C7.30771 22.7456 7.91876 23.2494 8.70706 23.5495C9.49536 23.8496 10.5107 24.0004 11.7545 24.0004C12.1697 24.0004 12.5786 23.9942 12.9828 23.9848C13.3871 23.974 13.7447 23.9584 14.0557 23.9382C14.4288 23.918 14.7818 23.8869 15.113 23.8449V19.1182H11.8789C11.5882 19.1182 11.3814 19.0669 11.257 18.9627C11.1326 18.8586 11.0704 18.6518 11.0704 18.3408V14.9202C11.0704 14.6092 11.1326 14.4024 11.257 14.2982C11.3814 14.1941 11.5882 14.1428 11.8789 14.1428H19.8086C20.0993 14.1428 20.3061 14.1941 20.4305 14.2982C20.5549 14.4024 20.6171 14.6092 20.6171 14.9202V27.0168Z" fill="#7F5D38"/>
<path d="M35.4515 29.2868C33.2748 29.2868 31.4603 28.9867 30.0096 28.385C28.559 27.7833 27.3866 26.8877 26.4957 25.6951C25.6048 24.5026 24.972 23.0162 24.5988 21.2328C24.2256 19.4509 24.0391 17.3877 24.0391 15.0445C24.0391 12.7014 24.2256 10.6179 24.5988 8.7941C24.972 6.97029 25.6048 5.43567 26.4957 4.1918C27.3866 2.94793 28.559 2.00415 30.0096 1.36201C31.4603 0.71986 33.2748 0.39801 35.4515 0.39801C37.6283 0.39801 39.4164 0.71986 40.8779 1.36201C42.3394 2.00415 43.5102 2.94793 44.3918 4.1918C45.2734 5.43567 45.9 6.97029 46.2732 8.7941C46.6463 10.6179 46.8329 12.7014 46.8329 15.0445C46.8329 17.3877 46.6463 19.4494 46.2732 21.2328C45.9 23.0162 45.2734 24.5026 44.3918 25.6951C43.5102 26.8877 42.3394 27.7833 40.8779 28.385C39.4164 28.9867 37.6081 29.2868 35.4515 29.2868ZM35.4515 23.9071C36.571 23.9071 37.4992 23.7314 38.2347 23.3784C38.9701 23.0255 39.5516 22.4813 39.9761 21.7459C40.4006 21.0104 40.696 20.0868 40.8623 18.9783C41.0287 17.8697 41.1111 16.5574 41.1111 15.0445C41.1111 13.5317 41.0287 12.1992 40.8623 11.0486C40.696 9.89803 40.4006 8.93404 39.9761 8.15662C39.5516 7.37921 38.9701 6.78837 38.2347 6.38411C37.4992 5.97986 36.571 5.77773 35.4515 5.77773C34.3321 5.77773 33.3789 5.97986 32.6528 6.38411C31.9267 6.78837 31.3514 7.37921 30.927 8.15662C30.5025 8.93404 30.2071 9.89803 30.0407 11.0486C29.8743 12.1992 29.7919 13.5317 29.7919 15.0445C29.7919 16.5574 29.8743 17.8697 30.0407 18.9783C30.2071 20.0868 30.5025 21.0104 30.927 21.7459C31.3514 22.4813 31.9267 23.0255 32.6528 23.3784C33.3789 23.7314 34.3118 23.9071 35.4515 23.9071Z" fill="#7F5D38"/>
<path d="M56.3462 24.0626C56.3462 24.8089 56.2482 25.5039 56.0508 26.146C55.8533 26.7882 55.5268 27.3588 55.0712 27.8564C54.6156 28.3539 54.0139 28.7737 53.2676 29.1158C52.5213 29.4578 51.5993 29.6911 50.5 29.8154V28.6649C50.7068 28.6229 50.9307 28.5249 51.1686 28.3694C51.4065 28.214 51.6304 27.9807 51.8372 27.6698C52.0439 27.3588 52.215 26.9592 52.3503 26.4726C52.4855 25.9859 52.5633 25.3795 52.5835 24.6534H51.3707C51.08 24.6534 50.8732 24.6021 50.7488 24.4979C50.6244 24.3937 50.5622 24.1869 50.5622 23.876V19.9889C50.5622 19.6779 50.6244 19.4711 50.7488 19.367C50.8732 19.2628 51.08 19.2115 51.3707 19.2115H55.5377C55.8284 19.2115 56.0352 19.2628 56.1596 19.367C56.284 19.4711 56.3462 19.6779 56.3462 19.9889V24.0626Z" fill="#7F5D38"/>
<path d="M63.854 0H84.0202C86.3462 0 88.2307 1.88446 88.2307 4.21049V5.06253H68.8777V21.6681C68.8777 23.0986 68.7067 24.2849 68.3646 25.2287C68.0225 26.1725 67.5048 26.9281 66.8098 27.4988C66.1148 28.0694 65.2503 28.4783 64.2132 28.7271C63.1761 28.9759 61.9634 29.1111 60.5749 29.1313C60.3261 29.1313 60.1551 29.1002 60.0618 29.038C59.9685 28.9759 59.9219 28.8204 59.9219 28.5716V24.6223C59.9219 24.3938 59.953 24.2274 60.0152 24.1248C60.0774 24.0206 60.2437 23.9584 60.5127 23.9382C62.0675 23.8558 62.845 22.9944 62.845 21.3572V1.00598C62.8481 0.450901 63.2974 0 63.8525 0H63.854Z" fill="#7F5D38"/>
<path d="M99.5409 28.7582C99.2502 28.7582 99.0434 28.7069 98.919 28.6027C98.7946 28.4985 98.7324 28.2917 98.7324 27.9808V1.64192C98.7324 1.33095 98.7946 1.12416 98.919 1.01999C99.0434 0.915811 99.2502 0.864502 99.5409 0.864502H103.926C104.216 0.864502 104.423 0.915811 104.547 1.01999C104.672 1.12416 104.734 1.33095 104.734 1.64192V12.4636H107.937L112.104 1.85959C112.249 1.50665 112.441 1.25787 112.679 1.11328C112.917 0.968676 113.223 0.895599 113.597 0.895599H117.515C117.95 0.895599 118.261 0.968676 118.448 1.11328C118.634 1.25787 118.623 1.55951 118.417 2.01508L112.912 14.7647L118.51 27.5143C118.717 27.9917 118.728 28.3228 118.541 28.5094C118.354 28.696 118.012 28.7893 117.515 28.7893H113.721C113.328 28.7893 113.026 28.7318 112.819 28.6183C112.612 28.5048 112.426 28.2606 112.259 27.8875L108.03 17.8433H104.734V27.9808C104.734 28.2917 104.672 28.4985 104.547 28.6027C104.423 28.7069 104.216 28.7582 103.926 28.7582H99.5409Z" fill="#7F5D38"/>
<path fill-rule="evenodd" clip-rule="evenodd" d="M88.0051 10.1593C88.3565 10.1593 88.6395 10.192 88.8541 10.2573C89.0889 10.3226 89.2646 10.4112 89.3812 10.5247C89.4978 10.6382 89.5864 10.7688 89.6455 10.915C89.7046 11.0456 89.7528 11.1824 89.7916 11.3285L94.9755 31.1231C95.0734 31.4636 95.0532 31.6906 94.9164 31.8041C94.7998 31.9332 94.5354 31.9985 94.125 31.9985H90.6406C90.4898 31.9985 90.3576 31.9923 90.2441 31.9798H78.6497C78.5347 31.9923 78.4025 31.9985 78.2532 31.9985H74.7689C74.3584 31.9985 74.0863 31.9332 73.9495 31.8041C73.8329 31.6906 73.822 31.4636 73.9199 31.1231L79.1037 11.3285C79.1426 11.1824 79.1924 11.044 79.2499 10.915C79.309 10.7688 79.396 10.6397 79.5127 10.5247C79.6293 10.4112 79.7956 10.321 80.0102 10.2573C80.245 10.192 80.5373 10.1593 80.8887 10.1593H88.0051Z" fill="url(#paint0_linear_741_29207)"/>
<path d="M83.9774 1.02463C84.1827 0.810067 84.5309 0.810067 84.7362 1.02463L93.2473 9.94471C93.5536 10.2666 93.3189 10.7874 92.868 10.7874H75.8441C75.3932 10.7874 75.1584 10.2666 75.4647 9.94471L83.9759 1.02463H83.9774Z" fill="#7F5D38"/>
<path d="M84.3569 14.5081C86.1645 14.5081 87.6298 13.0853 87.6298 11.3301C87.6298 9.57485 86.1645 8.15198 84.3569 8.15198C82.5493 8.15198 81.084 9.57485 81.084 11.3301C81.084 13.0853 82.5493 14.5081 84.3569 14.5081Z" fill="#7F5D38"/>
</g>
<defs>
<linearGradient id="paint0_linear_741_29207" x1="84.443" y1="10.1593" x2="84.443" y2="32" gradientUnits="userSpaceOnUse">
<stop stop-color="#7F5D38"/>
<stop offset="0.5" stop-color="#7F5D38" stop-opacity="0.4"/>
<stop offset="0.9" stop-color="#7F5D38" stop-opacity="0"/>
</linearGradient>
<clipPath id="clip0_741_29207">
<rect width="118.671" height="32" fill="white"/>
</clipPath>
</defs>
</svg>
