<svg width="160" height="57" viewBox="0 0 160 57" fill="none" xmlns="http://www.w3.org/2000/svg">
  <!-- G -->
  <path d="M20.0171 0H111.672C114.839 0 117.406 2.56739 117.406 5.7342V7.19499H21.3291C17.2967 7.19499 13.5179 9.16926 11.2167 12.4807C9.1355 15.4735 8.27411 19.0343 7.93249 22.6622C7.64117 25.7578 7.76273 28.9833 7.79207 31.0896C7.82561 33.4369 7.89686 35.4007 8.10645 36.9789C8.31603 38.557 8.71424 39.8229 9.30107 40.7723C9.88791 41.7217 10.7116 42.4008 11.7742 42.8053C12.8367 43.2098 14.2053 43.4131 15.882 43.4131C16.4416 43.4131 16.9928 43.4047 17.5377 43.3921C18.0826 43.3774 18.5646 43.3565 18.9838 43.3292C19.4868 43.302 19.9626 43.2601 20.409 43.2035V36.8322H16.0497C15.6577 36.8322 15.379 36.763 15.2113 36.6226C15.0437 36.4821 14.9598 36.2034 14.9598 35.7842V31.1734C14.9598 30.7542 15.0437 30.4755 15.2113 30.3351C15.379 30.1947 15.6577 30.1255 16.0497 30.1255H26.7384C27.1303 30.1255 27.4091 30.1947 27.5767 30.3351C27.7444 30.4755 27.8282 30.7542 27.8282 31.1734V47.479C27.8282 48.3739 27.6606 48.967 27.3252 49.2604C26.9899 49.5538 26.4177 49.7425 25.6066 49.8263C24.936 49.9101 24.1605 50.0003 23.2803 50.0988C22.4 50.1973 21.4988 50.2937 20.5766 50.3922C19.6545 50.4907 18.726 50.5745 17.7892 50.6437C16.8524 50.7128 15.9805 50.7485 15.1694 50.7485C12.2352 50.7485 9.79778 50.3775 7.85495 49.6377C5.91211 48.8979 4.3612 47.7305 3.2022 46.1376C2.04321 44.5448 1.22583 42.5119 0.750078 40.0388C0.274324 37.5657 0.0374955 34.5833 0.0374955 31.0896C0.0374955 31.0896 -0.117596 26.6317 0.203066 21.629C0.523728 16.6262 1.71626 12.0804 4.33395 8.26177C7.878 3.09135 13.7463 0 20.0171 0Z" fill="#7F5D38"/>
  
  <!-- O -->
  <g transform="translate(32.4, 11.6)">
    <path d="M15.3834 38.9406C12.4492 38.9406 10.0034 38.534 8.04799 37.725C6.09258 36.9139 4.51233 35.7067 3.31142 34.0992C2.1105 32.4917 1.2575 30.4881 0.754501 28.0841C0.251501 25.6802 0 22.9012 0 19.7427C0 16.5843 0.251501 13.7759 0.754501 11.3175C1.2575 8.85908 2.1105 6.7905 3.31142 5.11383C4.51233 3.43716 6.09258 2.16499 8.04799 1.29942C10.0034 0.433837 12.4492 0 15.3834 0C18.3176 0 20.7278 0.433837 22.6979 1.29942C24.6679 2.16499 26.2461 3.43716 27.4344 5.11383C28.6228 6.7905 29.4674 8.85908 29.9704 11.3175C30.4734 13.7759 30.7249 16.5843 30.7249 19.7427C30.7249 22.9012 30.4734 25.6802 29.9704 28.0841C29.4674 30.4881 28.6228 32.4917 27.4344 34.0992C26.2461 35.7067 24.6679 36.9139 22.6979 37.725C20.7278 38.5361 18.2882 38.9406 15.3834 38.9406ZM15.3834 31.689C16.8924 31.689 18.1436 31.4521 19.1349 30.9764C20.1263 30.5006 20.908 29.7671 21.4823 28.7758C22.0544 27.7844 22.4527 26.5395 22.6769 25.0452C22.9012 23.5509 23.0122 21.782 23.0122 19.7427C23.0122 17.7035 22.8991 15.9074 22.6769 14.3564C22.4527 12.8055 22.0544 11.5061 21.4823 10.4582C20.9101 9.41029 20.1263 8.61387 19.1349 8.06895C18.1436 7.52404 16.8924 7.25158 15.3834 7.25158C13.8744 7.25158 12.5897 7.52404 11.6109 8.06895C10.6322 8.61387 9.8567 9.41029 9.28454 10.4582C8.71237 11.5061 8.31417 12.8055 8.08991 14.3564C7.86566 15.9074 7.75458 17.7035 7.75458 19.7427C7.75458 21.782 7.86566 23.5509 8.08991 25.0452C8.31417 26.5395 8.71237 27.7844 9.28454 28.7758C9.8567 29.7671 10.6322 30.5006 11.6109 30.9764C12.5897 31.4521 13.8472 31.689 15.3834 31.689Z" fill="#7F5D38"/>
  </g>
  
  <!-- , (comma) -->
  <g transform="translate(68.3, 42.8)">
    <path d="M7.88033 6.539C7.88033 7.54499 7.74829 8.48183 7.48212 9.34741C7.21595 10.213 6.77582 10.9822 6.16174 11.6528C5.54767 12.3235 4.73658 12.8894 3.73058 13.3504C2.72458 13.8115 1.48175 14.1259 0 14.2936V12.7427C0.278746 12.6861 0.580543 12.554 0.901205 12.3444C1.22187 12.1349 1.52367 11.8205 1.80242 11.4013C2.08116 10.9822 2.3117 10.4435 2.49404 9.78754C2.67638 9.13154 2.78117 8.31417 2.80841 7.33541H1.17367C0.781747 7.33541 0.503001 7.26625 0.335334 7.12583C0.167668 6.98541 0.083832 6.70666 0.083832 6.2875V1.04792C0.083832 0.62875 0.167668 0.350004 0.335334 0.209583C0.503001 0.0691625 0.781747 0 1.17367 0H6.79049C7.18241 0 7.46116 0.0691625 7.62883 0.209583C7.79649 0.350004 7.88033 0.62875 7.88033 1.04792V6.539Z" fill="#7F5D38"/>
  </g>
  
  <!-- J -->
  <g transform="translate(80.8, 12.2)">
    <path d="M12.072 32.2339C12.072 34.1621 11.8414 35.7612 11.3804 37.0333C10.9193 38.3055 10.2214 39.3241 9.28453 40.0933C8.3477 40.8624 7.18242 41.4136 5.7845 41.749C4.38658 42.0843 2.75182 42.2666 0.880246 42.2939C0.544912 42.2939 0.314374 42.252 0.188624 42.1681C0.0628737 42.0843 0 41.8747 0 41.5394V36.216C0 35.9079 0.0419179 35.6836 0.125751 35.5453C0.209584 35.4049 0.433835 35.321 0.796414 35.2938C2.89225 35.1806 3.94016 34.0216 3.94016 31.8147V1.04792C3.94016 0.628749 4.024 0.350004 4.19166 0.209583C4.35933 0.0691624 4.63808 0 5.03 0H10.9822C11.3741 0 11.6528 0.0691624 11.8205 0.209583C11.9882 0.350004 12.072 0.628749 12.072 1.04792V32.2339Z" fill="#7F5D38"/>
  </g>
  
  <!-- Arrow body (gradient) -->
  <g transform="translate(97.3, 16.4)">
    <path fill-rule="evenodd" clip-rule="evenodd" d="M20.7824 0C21.298 0 21.7151 0.0544918 22.0294 0.165571C22.3732 0.27665 22.631 0.42755 22.8028 0.622462C22.9747 0.815279 23.1046 1.03744 23.1905 1.28475C23.2765 1.50481 23.3477 1.73954 23.4064 1.98895L31.0164 35.6794C31.1589 36.26 31.1316 36.6456 30.9304 36.8405C30.7586 37.0606 30.3709 37.1717 29.7693 37.1717H24.6513C24.4313 37.1717 24.2364 37.1612 24.0687 37.1402H7.04426C6.87659 37.1612 6.68168 37.1717 6.46161 37.1717H1.34359C0.742086 37.1717 0.339689 37.0606 0.140585 36.8405C-0.0312736 36.6477 -0.0459469 36.26 0.0986655 35.6794L7.70863 1.98895C7.76522 1.73954 7.83857 1.50481 7.9245 1.28475C8.01043 1.03534 8.13828 0.815279 8.31223 0.622462C8.48409 0.429646 8.7272 0.27665 9.04367 0.165571C9.38739 0.0544918 9.81703 0 10.3326 0H20.7824Z" fill="url(#arrowGradient)"/>
  </g>
  
  <!-- Arrow head (triangle) -->
  <g transform="translate(99.4, 2.4)">
    <path d="M12.7024 0.24364C13.0021 -0.0812135 13.5156 -0.0812135 13.8153 0.24364L26.3127 13.7303C26.7633 14.2166 26.4175 15.0046 25.7552 15.0046H0.760326C0.0980433 15.0046 -0.245674 14.2166 0.202834 13.7303L12.7003 0.24364H12.7024Z" fill="#7F5D38"/>
  </g>
  
  <!-- Arrow dot (circle) -->
  <g transform="translate(107.9, 13.4)">
    <circle cx="4.80364" cy="4.80365" r="4.80365" fill="#7F5D38"/>
  </g>
  
  <!-- K -->
  <g transform="translate(133.1, 12.2)">
    <path d="M1.08984 37.5992C0.697915 37.5992 0.419169 37.5301 0.251502 37.3896C0.0838358 37.2492 0 36.9705 0 36.5513V1.04792C0 0.62875 0.0838358 0.350004 0.251502 0.209583C0.419169 0.0691625 0.697915 0 1.08984 0H7.00008C7.392 0 7.67075 0.0691625 7.83842 0.209583C8.00608 0.350004 8.08992 0.62875 8.08992 1.04792V15.6349H12.4073L18.0242 1.34133C18.2191 0.865579 18.479 0.530246 18.7996 0.335334C19.1203 0.140421 19.5332 0.0419168 20.0362 0.0419168H25.3176C25.9045 0.0419168 26.3236 0.140421 26.5751 0.335334C26.8266 0.530246 26.812 0.936837 26.5332 1.55092L19.114 18.7367L26.659 35.9226C26.9377 36.566 26.9524 37.0124 26.7009 37.2639C26.4494 37.5154 25.9883 37.6411 25.3176 37.6411H20.2038C19.6736 37.6411 19.267 37.5636 18.9882 37.4106C18.7095 37.2576 18.458 36.9286 18.2337 36.4256L12.5331 22.8865H8.08992V36.5513C8.08992 36.9705 8.00608 37.2492 7.83842 37.3896C7.67075 37.5301 7.392 37.5992 7.00008 37.5992H1.08984Z" fill="#7F5D38"/>
  </g>
  
  <defs>
    <linearGradient id="arrowGradient" x1="15.5533" y1="0" x2="15.5533" y2="37.1717" gradientUnits="userSpaceOnUse">
      <stop stop-color="#7F5D38" stop-opacity="0.9"/>
      <stop offset="0.4" stop-color="#7F5D38" stop-opacity="0.5"/>
      <stop offset="1" stop-color="#7F5D38" stop-opacity="0"/>
    </linearGradient>
  </defs>
</svg>
