<svg xmlns="http://www.w3.org/2000/svg" width="28" height="28" viewBox="0 0 28 28" fill="none">
  <path d="M18.8639 3.42053C20.5626 3.42053 22.269 4.06819 23.5498 5.368C24.8361 6.67372 25.6535 8.59664 25.6536 11.0748C25.6536 13.3587 24.3005 15.8409 22.2805 18.1326C20.241 20.4465 17.4344 22.6671 14.3312 24.4389L13.9875 24.6356L13.6438 24.4389C10.5407 22.6672 7.73394 20.4464 5.69447 18.1326C3.67468 15.841 2.32031 13.3586 2.32031 11.0748C2.3205 8.59647 3.13874 6.67373 4.42515 5.368C5.70587 4.06811 7.41137 3.42066 9.11004 3.42053C11.1967 3.42053 12.5962 4.45433 13.4491 5.4415C13.6452 5.66844 13.8124 5.89538 13.9554 6.10723C14.1135 5.86668 14.3038 5.60868 14.5321 5.35247C15.3941 4.38492 16.7933 3.42072 18.8639 3.42053ZM18.8639 4.80788C17.2779 4.80806 16.2328 5.52951 15.5685 6.27495C15.2328 6.65173 14.9966 7.03359 14.8468 7.32374C14.7722 7.46829 14.7211 7.58671 14.6905 7.6654C14.6788 7.69554 14.671 7.71746 14.6667 7.73063C14.6573 7.7788 14.6259 7.92104 14.5072 8.05572C14.4461 8.11684 14.2926 8.21932 14.2008 8.25658C14.1056 8.28007 13.9247 8.28756 13.8426 8.27522C13.67 8.23842 13.5614 8.14639 13.5299 8.11888C13.4861 8.08052 13.456 8.04457 13.4419 8.02674C13.4129 7.99006 13.3935 7.95801 13.387 7.94701C13.3639 7.90775 13.3453 7.86716 13.3435 7.86315C13.3355 7.84566 13.3113 7.78994 13.299 7.76272C13.2631 7.68359 13.2077 7.56563 13.1313 7.4221C12.9773 7.13287 12.738 6.74061 12.3993 6.34846C11.7256 5.56873 10.6806 4.80788 9.11004 4.80788C7.76095 4.80801 6.41797 5.32106 5.41286 6.34121C4.41357 7.35554 3.70785 8.91337 3.70766 11.0748C3.70766 12.8513 4.79259 15.0115 6.73498 17.2153C8.5836 19.3126 11.1332 21.3605 13.9865 23.0339C16.8404 21.3603 19.3911 19.313 21.24 17.2153C23.1825 15.0114 24.2673 12.8514 24.2673 11.0748C24.2671 8.91328 23.5605 7.35553 22.5611 6.34121C21.5559 5.32122 20.213 4.80788 18.8639 4.80788ZM14.6698 7.70682C14.671 7.70019 14.6737 7.69177 14.675 7.683C14.6754 7.67853 14.6736 7.66766 14.675 7.65298C14.6736 7.66979 14.6728 7.68804 14.6698 7.70682ZM13.2938 7.59707L13.2969 7.65816L13.2949 7.57947C13.2947 7.58549 13.2939 7.59161 13.2938 7.59707Z" fill="currentColor"/>
</svg>
