<svg xmlns="http://www.w3.org/2000/svg" width="24" height="24" viewBox="0 0 24 24" fill="none">
  <path d="M16.179 2.90833C17.6351 2.90843 19.0967 3.46348 20.1945 4.57788C21.2972 5.69734 21.998 7.3455 21.998 9.47026C21.9979 11.4281 20.8376 13.5555 19.1063 15.5201C17.3581 17.5036 14.953 19.4085 12.2932 20.9272L11.9985 21.0959L11.7038 20.9272C9.04386 19.4084 6.63801 17.5037 4.88981 15.5201C3.1586 13.5556 1.99819 11.428 1.99805 9.47026C1.99809 7.34563 2.69992 5.69733 3.80251 4.57788C4.90029 3.46353 6.36191 2.90842 7.81796 2.90833C9.56167 2.90833 10.7584 3.6068 11.5139 4.3977C11.7028 4.59546 11.8637 4.79809 11.9985 4.99593C12.1332 4.79822 12.2944 4.59533 12.4831 4.3977C13.2386 3.60689 14.4356 2.9084 16.179 2.90833Z" fill="currentColor"/>
</svg>
