<svg xmlns="http://www.w3.org/2000/svg" width="24" height="24" viewBox="0 0 24 24" fill="none">
  <path d="M16.1685 2.93213C17.6245 2.93213 19.0872 3.48726 20.185 4.60138C21.2875 5.72058 21.9881 7.3688 21.9883 9.4929C21.9883 11.4505 20.8284 13.5782 19.097 15.5425C17.3489 17.5258 14.9432 19.4292 12.2834 20.9478L11.9887 21.1164L11.6941 20.9478C9.03436 19.4293 6.62853 17.5257 4.88041 15.5425C3.14917 13.5783 1.98828 11.4504 1.98828 9.4929C1.98845 7.36865 2.68979 5.72058 3.79243 4.60138C4.89019 3.4872 6.35204 2.93224 7.80804 2.93213C9.59664 2.93213 10.7962 3.81824 11.5273 4.66439C11.6953 4.85891 11.8387 5.05342 11.9612 5.23501C12.0968 5.02883 12.2599 4.80769 12.4555 4.58807C13.1944 3.75875 14.3937 2.93229 16.1685 2.93213ZM16.1685 4.12128C14.8091 4.12144 13.9133 4.73982 13.3438 5.37877C13.0561 5.70173 12.8537 6.02904 12.7253 6.27774C12.6614 6.40164 12.6175 6.50314 12.5913 6.57059C12.5813 6.59642 12.5746 6.61521 12.5709 6.6265C12.5628 6.66779 12.5359 6.78971 12.4342 6.90515C12.3818 6.95754 12.2503 7.04538 12.1715 7.07731C12.09 7.09745 11.9349 7.10387 11.8645 7.09329C11.7166 7.06175 11.6235 6.98286 11.5965 6.95928C11.5589 6.9264 11.5332 6.89559 11.521 6.8803C11.4962 6.84887 11.4796 6.82139 11.474 6.81197C11.4542 6.77832 11.4383 6.74353 11.4367 6.74009C11.4299 6.72509 11.4092 6.67733 11.3986 6.65401C11.3678 6.58618 11.3203 6.48507 11.2548 6.36204C11.1228 6.11414 10.9177 5.77791 10.6274 5.44178C10.05 4.77344 9.15421 4.12128 7.80804 4.12128C6.65169 4.12139 5.50056 4.56115 4.63903 5.43557C3.7825 6.30499 3.1776 7.64028 3.17744 9.4929C3.17744 11.0157 4.10738 12.8673 5.77228 14.7562C7.35681 16.5539 9.54219 18.3093 11.9878 19.7436C14.4341 18.3091 16.6203 16.5543 18.2052 14.7562C19.8702 12.8672 20.8 11.0157 20.8 9.4929C20.7999 7.6402 20.1941 6.30499 19.3375 5.43557C18.4759 4.56129 17.3249 4.12128 16.1685 4.12128ZM12.5735 6.60609C12.5746 6.60041 12.5769 6.59319 12.578 6.58568C12.5784 6.58184 12.5768 6.57253 12.578 6.55994C12.5768 6.57435 12.5761 6.58999 12.5735 6.60609ZM11.3941 6.51202L11.3968 6.56438L11.395 6.49693C11.3949 6.50209 11.3942 6.50734 11.3941 6.51202Z" fill="currentColor"/>
</svg>