<svg xmlns="http://www.w3.org/2000/svg" width="24" height="24" viewBox="0 0 24 24" fill="none">
  <g clip-path="url(#clip0_349_40673)">
    <circle cx="6" cy="7" r="4" fill="currentColor"/>
    <circle cx="18" cy="7" r="4" fill="currentColor"/>
    <path d="M6.21875 11.8633C8.42772 11.8635 10.2188 13.6543 10.2188 15.8633V16.4141H8.93066L7.67871 13.8945C7.11792 12.7664 5.73718 12.301 4.59473 12.8545C3.45224 13.4084 2.98021 14.7721 3.54102 15.9004L5.95312 20.7539L6.05859 20.9658H10.2188V24.001H1V15.8633C1 13.6542 2.7909 11.8633 5 11.8633H6.21875ZM4.93262 13.5352C5.69425 13.166 6.61534 13.4764 6.98926 14.2285L8.34668 16.9609L8.45215 17.1729H10.2188V20.207H6.53711L4.23047 15.5654C3.85689 14.8133 4.17108 13.9044 4.93262 13.5352Z" fill="currentColor"/>
    <path d="M4.9953 13.5539C5.81136 13.1386 6.7976 13.4878 7.1982 14.334L8.36202 16.7929H11.6464C12.5555 16.7929 13.2925 17.557 13.2925 18.4997C13.2925 19.4423 12.5555 20.2065 11.6464 20.2065H6.31087L4.243 15.8381C3.84243 14.9919 4.17926 13.9693 4.9953 13.5539Z" fill="currentColor"/>
    <path d="M18.9922 11.8633C21.2011 11.8635 22.9922 13.6543 22.9922 15.8633V24.001H18.4443L20.6006 19.9473L20.6885 19.7812V15.2764C20.6885 13.9083 19.6847 12.6211 18.2393 12.6211C16.7939 12.6212 15.791 13.9084 15.791 15.2764V18.3555L14.1025 21.5342C13.6945 22.3019 13.6758 23.2282 14.0117 24.001H13.7734V15.8633C13.7734 13.6541 15.5643 11.8633 17.7734 11.8633H18.9922ZM18.2393 13.3799C19.1673 13.3799 19.9199 14.2289 19.9199 15.2764V19.5947L17.6641 23.8379L17.5684 23.999L17.5674 24.001H14.8799C14.5147 23.4517 14.4322 22.7036 14.7012 22.0576L14.7822 21.8867L16.5586 18.5439V15.2764C16.5586 14.229 17.3113 13.38 18.2393 13.3799Z" fill="currentColor"/>
    <path fill-rule="evenodd" clip-rule="evenodd" d="M18.2442 13.377C19.1721 13.3772 19.9238 14.2262 19.9239 15.2734V19.5918L17.668 23.835C17.6379 23.8917 17.6057 23.9462 17.5713 23.998H14.8838C14.486 23.3995 14.424 22.5651 14.7862 21.8838L16.5635 18.541V15.2734C16.5635 14.226 17.3161 13.377 18.2442 13.377Z" fill="currentColor"/>
  </g>
  <defs>
    <clipPath id="clip0_349_40673">
      <rect width="24" height="24" fill="white"/>
    </clipPath>
  </defs>
</svg>
