<svg xmlns="http://www.w3.org/2000/svg" width="15" height="14" viewBox="0 0 15 14" fill="none">
<path d="M15 8.33333C15 7.875 14.625 7.5 14.1667 7.5H12.5V9.16667H14.1667C14.625 9.16667 15 8.79167 15 8.33333Z" fill="currentColor"/>
<path d="M14.1667 10.833H12.5V12.4997H14.1667C14.625 12.4997 15 12.1247 15 11.6663C15 11.208 14.625 10.833 14.1667 10.833Z" fill="currentColor"/>
<path d="M7.50065 8.33366H5.83398V11.667H7.50065C7.50065 12.5837 8.25065 13.3337 9.16732 13.3337H11.6673V6.66699H9.16732C8.25065 6.66699 7.50065 7.41699 7.50065 8.33366Z" fill="currentColor"/>
<path d="M1.66667 7.5C1.66667 6.58333 2.41667 5.83333 3.33333 5.83333H4.58333C6.19167 5.83333 7.5 4.525 7.5 2.91667C7.5 1.30833 6.19167 0 4.58333 0H1.66667C1.20833 0 0.833333 0.375 0.833333 0.833333C0.833333 1.29167 1.20833 1.66667 1.66667 1.66667H4.58333C5.275 1.66667 5.83333 2.225 5.83333 2.91667C5.83333 3.60833 5.275 4.16667 4.58333 4.16667H3.33333C1.49167 4.16667 0 5.65833 0 7.5C0 9.34167 1.49167 10.8333 3.33333 10.8333H5V9.16667H3.33333C2.41667 9.16667 1.66667 8.41667 1.66667 7.5Z" fill="currentColor"/>
</svg>