<svg xmlns="http://www.w3.org/2000/svg" width="22" height="19" viewBox="0 0 22 19" fill="none">
  <path d="M21.375 11.875C21.375 11.2219 20.8406 10.6875 20.1875 10.6875H17.8125V13.0625H20.1875C20.8406 13.0625 21.375 12.5281 21.375 11.875Z" fill="#7F5D38"/>
  <path d="M20.1875 15.4395H17.8125V17.8145H20.1875C20.8406 17.8145 21.375 17.2801 21.375 16.627C21.375 15.9738 20.8406 15.4395 20.1875 15.4395Z" fill="#7F5D38"/>
  <path d="M10.6914 11.875H8.31641V16.625H10.6914C10.6914 17.9313 11.7602 19 13.0664 19H16.6289V9.5H13.0664C11.7602 9.5 10.6914 10.5688 10.6914 11.875Z" fill="#7F5D38"/>
  <path d="M2.375 10.6875C2.375 9.38126 3.44375 8.31251 4.75001 8.31251H6.53126C8.82314 8.31251 10.6875 6.44813 10.6875 4.15626C10.6875 1.86438 8.82314 0 6.53126 0H2.375C2.375 0.949073 2.375 0.295948 2.375 0.949073C2.375 1.6022 2.375 1.66157 2.375 2.375H6.53126C7.51688 2.375 8.31251 3.17063 8.31251 4.15626C8.31251 5.14188 7.51688 5.93751 6.53126 5.93751H4.75001C2.12563 5.93751 0 8.06314 0 10.6875C0 13.3119 2.12563 15.4375 4.75001 15.4375H7.12501V13.0625H4.75001C3.44375 13.0625 2.375 11.9938 2.375 10.6875Z" fill="url(#paint0_linear_349_40714)"/>
  <defs>
    <linearGradient id="paint0_linear_349_40714" x1="2.37408" y1="0.949073" x2="7.36158" y2="14.4866" gradientUnits="userSpaceOnUse">
      <stop stop-color="#7F5D38" stop-opacity="0.1"/>
      <stop offset="1" stop-color="#7F5D38"/>
    </linearGradient>
  </defs>
</svg>
