<svg xmlns="http://www.w3.org/2000/svg" width="20" height="20" viewBox="0 0 20 20" fill="none">
<path d="M13.3327 3.33366C13.3327 2.40866 14.0743 1.66699 14.9993 1.66699C15.9243 1.66699 16.666 2.40866 16.666 3.33366C16.666 4.25866 15.9243 5.00033 14.9993 5.00033C14.0743 5.00033 13.3327 4.25866 13.3327 3.33366ZM16.666 18.3337V13.3337H18.7493L16.6327 6.97533C16.3993 6.29199 15.766 5.83366 15.0493 5.83366H14.9494C14.2327 5.83366 13.591 6.29199 13.366 6.97533L12.6494 9.12533C13.5493 9.62533 14.166 10.567 14.166 11.667V18.3337H16.666ZM10.416 9.58366C11.1077 9.58366 11.666 9.02533 11.666 8.33366C11.666 7.64199 11.1077 7.08366 10.416 7.08366C9.72435 7.08366 9.16602 7.64199 9.16602 8.33366C9.16602 9.02533 9.72435 9.58366 10.416 9.58366ZM4.58268 5.00033C5.50768 5.00033 6.24935 4.25866 6.24935 3.33366C6.24935 2.40866 5.50768 1.66699 4.58268 1.66699C3.65768 1.66699 2.91602 2.40866 2.91602 3.33366C2.91602 4.25866 3.65768 5.00033 4.58268 5.00033ZM6.24935 18.3337V12.5003H7.49935V7.50033C7.49935 6.58366 6.74935 5.83366 5.83268 5.83366H3.33268C2.41602 5.83366 1.66602 6.58366 1.66602 7.50033V12.5003H2.91602V18.3337H6.24935ZM11.666 18.3337V15.0003H12.4993V11.667C12.4993 10.9837 11.9327 10.417 11.2493 10.417H9.58268C8.89935 10.417 8.33268 10.9837 8.33268 11.667V15.0003H9.16602V18.3337H11.666Z" fill="currentColor"/>
</svg>