<svg xmlns="http://www.w3.org/2000/svg" width="64" height="64" viewBox="0 0 64 64" fill="none">
  <circle cx="32" cy="32" r="32" fill="#F1F3F5"/>
  <mask id="mask0_349_35655" style="mask-type:alpha" maskUnits="userSpaceOnUse" x="0" y="0" width="64" height="64">
    <circle cx="32" cy="32" r="32" fill="#F1F3F5"/>
  </mask>
  <g mask="url(#mask0_349_35655)">
    <path d="M32.0011 16C39.6296 16.0004 45.8138 22.2003 45.8139 29.8489C45.8139 35.0372 42.9664 39.5559 38.7548 41.9283C48.0236 44.7804 54.7997 53.349 54.9999 63.5357C55.0049 63.7903 54.7999 63.9996 54.5462 64H9.45602C9.20209 63.9999 8.99509 63.7905 9.00009 63.5357C9.20027 53.3503 15.976 44.7815 25.243 41.9283C21.0327 39.5555 18.1884 35.0362 18.1884 29.8489C18.1884 22.2001 24.3723 16 32.0011 16Z" fill="#CED4DA"/>
  </g>
</svg>
