<svg xmlns="http://www.w3.org/2000/svg" width="15" height="17" viewBox="0 0 15 17" fill="none">
  <path d="M1.25 16.6667V10.4167H0V5.83333C0 4.91667 0.75 4.16667 1.66667 4.16667H4.16667C5.08333 4.16667 5.83333 4.91667 5.83333 5.83333V10.4167H4.58333V16.6667H1.25ZM11.6667 16.6667V11.6667H14.1667L12.05 5.30833C11.8167 4.625 11.1833 4.16667 10.4667 4.16667H10.3667C9.65 4.16667 9.00833 4.625 8.78333 5.30833L6.66667 11.6667H9.16667V16.6667H11.6667ZM2.91667 3.33333C3.84167 3.33333 4.58333 2.59167 4.58333 1.66667C4.58333 0.741667 3.84167 0 2.91667 0C1.99167 0 1.25 0.741667 1.25 1.66667C1.25 2.59167 1.99167 3.33333 2.91667 3.33333ZM10.4167 3.33333C11.3417 3.33333 12.0833 2.59167 12.0833 1.66667C12.0833 0.741667 11.3417 0 10.4167 0C9.49167 0 8.75 0.741667 8.75 1.66667C8.75 2.59167 9.49167 3.33333 10.4167 3.33333Z" fill="currentColor"/>
</svg>