<svg xmlns="http://www.w3.org/2000/svg" width="28" height="28" viewBox="0 0 28 28" fill="none">
  <path fill-rule="evenodd" clip-rule="evenodd" d="M13.0254 2.33301C18.93 2.3331 23.7174 7.11992 23.7178 13.0244L23.7031 13.5752C23.5763 16.0761 22.5883 18.3493 21.0322 20.1074L25.3672 24.4424C25.6226 24.6978 25.6226 25.1127 25.3672 25.3682C25.1118 25.6234 24.6968 25.6235 24.4414 25.3682L20.1064 21.0332C18.2204 22.7023 15.7419 23.7168 13.0254 23.7168L12.4756 23.7021C6.82637 23.4158 2.33398 18.7448 2.33398 13.0244C2.33436 7.11998 7.12089 2.33319 13.0254 2.33301ZM13.0254 3.6416C7.84339 3.64178 3.64295 7.84249 3.64258 13.0244C3.64258 18.2067 7.84316 22.408 13.0254 22.4082C18.2077 22.4081 22.4092 18.2067 22.4092 13.0244C22.4088 7.84243 18.2075 3.64169 13.0254 3.6416Z" fill="currentColor"/>
</svg>
