<svg xmlns="http://www.w3.org/2000/svg" width="24" height="24" viewBox="0 0 24 24" fill="none">
<path d="M18.0004 2C20.2095 2.0001 22.0005 3.792 22.0005 6.00108C22.0002 8.20983 20.2093 10.0011 18.0004 10.0012C16.668 10.0012 15.4881 9.34845 14.7611 8.34661L9.82069 10.8173C9.9364 11.1914 10.0002 11.5892 10.0002 12.0012C10.0002 12.413 9.93631 12.8104 9.82069 13.1842L14.7611 15.6549C15.4881 14.6529 16.6679 14.0003 18.0004 14.0003C20.2094 14.0004 22.0004 15.7915 22.0005 18.0004C22.0003 20.2093 20.2093 22.0005 18.0004 22.0005C15.7915 22.0005 14.0006 20.2094 14.0003 18.0004C14.0004 17.5885 14.0622 17.1905 14.1779 16.8165L9.23843 14.3468C8.51152 15.3484 7.33237 16.0013 6.00011 16.0014C3.79119 16.0014 2.00036 14.2101 2 12.0012C2 9.79211 3.79097 8.00114 6.00011 8.00114C7.33233 8.00121 8.51152 8.65315 9.23843 9.65475L14.1779 7.18403C14.0624 6.81035 14.0004 6.4127 14.0003 6.00108C14.0003 3.79194 15.7913 2 18.0004 2Z" fill="currentColor"/>
</svg>