<svg xmlns="http://www.w3.org/2000/svg" width="24" height="24" viewBox="0 0.5 24 24" fill="none">
  <path fill-rule="evenodd" clip-rule="evenodd" d="M11.2212 3.26856C11.5783 2.68777 12.4226 2.68787 12.7798 3.26856L15.4097 7.54591C15.5304 7.74226 15.7209 7.88622 15.9429 7.94825L20.6919 9.27442C21.3172 9.44916 21.5667 10.2022 21.1694 10.7158L18.0278 14.7774C17.8942 14.9503 17.8271 15.1655 17.8384 15.3838L18.1069 20.5654C18.1414 21.234 17.4695 21.7117 16.8491 21.46L12.3452 19.6309C12.1246 19.5413 11.8774 19.5414 11.6567 19.6309L7.15283 21.46C6.53242 21.7119 5.86047 21.2341 5.89501 20.5654L6.16357 15.3838C6.17482 15.1654 6.10686 14.9504 5.97314 14.7774L2.83251 10.7158C2.43536 10.2023 2.68397 9.44933 3.30908 9.27442L8.0581 7.94825C8.28008 7.88622 8.47057 7.74223 8.5913 7.54591L11.2212 3.26856Z" fill="currentColor"/>
</svg>